<?xml version="1.0" encoding="utf-8"?>
<!-- Generated by IcoMoon.io -->
<!DOCTYPE svg PUBLIC "-//W3C//DTD SVG 1.1//EN" "http://www.w3.org/Graphics/SVG/1.1/DTD/svg11.dtd">
<svg version="1.1" xmlns="http://www.w3.org/2000/svg" xmlns:xlink="http://www.w3.org/1999/xlink" width="32" height="128" viewBox="0 0 32 128">
<svg id="icon-mark-github" width="32" height="32" viewBox="0 0 32 32" x="0" y="0">
<path fill="#A93BE1" d="M16 0c-8.836 0-16 7.164-16 16 0 7.070 4.584 13.066 10.942 15.182 0.8 0.146 1.092-0.348 1.092-0.77 0-0.381-0.015-1.643-0.022-2.979-4.449 0.967-5.39-1.887-5.39-1.887-0.729-1.848-1.776-2.34-1.776-2.34-1.454-0.992 0.11-0.973 0.11-0.973 1.606 0.111 2.452 1.648 2.452 1.648 1.428 2.445 3.746 1.738 4.656 1.328 0.145-1.031 0.559-1.738 1.016-2.137-3.552-0.404-7.288-1.777-7.288-7.908 0-1.748 0.624-3.174 1.646-4.294-0.163-0.406-0.714-2.034 0.158-4.236 0 0 1.342-0.43 4.4 1.641 1.275-0.356 2.644-0.532 4.004-0.538 1.359 0.006 2.729 0.184 4.006 0.54 3.053-2.072 4.396-1.641 4.396-1.641 0.875 2.204 0.324 3.83 0.16 4.234 1.025 1.12 1.645 2.546 1.645 4.294 0 6.146-3.742 7.5-7.307 7.896 0.576 0.496 1.086 1.469 1.086 2.961 0 2.139-0.021 3.863-0.021 4.391 0 0.426 0.291 0.924 1.102 0.768 6.354-2.119 10.934-8.115 10.934-15.182 0-8.836-7.164-16-16-16z"></path>
</svg>
<svg id="icon-facebook" width="32" height="32" viewBox="0 0 32 32" x="0" y="32">
<path fill="#594BE3" d="M19 6h5v-6h-5c-3.86 0-7 3.14-7 7v3h-4v6h4v16h6v-16h5l1-6h-6v-3c0-0.542 0.458-1 1-1z"></path>
</svg>
<svg id="icon-mark-github" width="32" height="32" viewBox="0 0 32 32" x="0" y="64">
<path fill="#8E03D5" d="M16 0c-8.836 0-16 7.164-16 16 0 7.070 4.584 13.066 10.942 15.182 0.8 0.146 1.092-0.348 1.092-0.77 0-0.381-0.015-1.643-0.022-2.979-4.449 0.967-5.39-1.887-5.39-1.887-0.729-1.848-1.776-2.34-1.776-2.34-1.454-0.992 0.11-0.973 0.11-0.973 1.606 0.111 2.452 1.648 2.452 1.648 1.428 2.445 3.746 1.738 4.656 1.328 0.145-1.031 0.559-1.738 1.016-2.137-3.552-0.404-7.288-1.777-7.288-7.908 0-1.748 0.624-3.174 1.646-4.294-0.163-0.406-0.714-2.034 0.158-4.236 0 0 1.342-0.43 4.4 1.641 1.275-0.356 2.644-0.532 4.004-0.538 1.359 0.006 2.729 0.184 4.006 0.54 3.053-2.072 4.396-1.641 4.396-1.641 0.875 2.204 0.324 3.83 0.16 4.234 1.025 1.12 1.645 2.546 1.645 4.294 0 6.146-3.742 7.5-7.307 7.896 0.576 0.496 1.086 1.469 1.086 2.961 0 2.139-0.021 3.863-0.021 4.391 0 0.426 0.291 0.924 1.102 0.768 6.354-2.119 10.934-8.115 10.934-15.182 0-8.836-7.164-16-16-16z"></path>
</svg>
<svg id="icon-facebook" width="32" height="32" viewBox="0 0 32 32" x="0" y="96">
<path fill="#1A09D9" d="M19 6h5v-6h-5c-3.86 0-7 3.14-7 7v3h-4v6h4v16h6v-16h5l1-6h-6v-3c0-0.542 0.458-1 1-1z"></path>
</svg>
</svg>
